<svg width="700" height="700" viewBox="0 0 700 700" fill="none" xmlns="http://www.w3.org/2000/svg">
<path d="M539.78 461.3H159.4L160.408 449.175C166.205 379.159 222.959 320.545 298.108 301.875C272.37 281.988 255.846 247.711 255.846 209.301C255.846 148.313 297.901 98.691 349.596 98.691C401.284 98.691 443.338 148.312 443.338 209.301C443.338 247.711 426.811 281.989 401.076 301.867C476.221 320.531 532.976 379.148 538.776 449.167L539.78 461.3ZM184.35 438.898H514.82C502.875 374.425 439.769 323.608 362.71 318.488L349.589 317.613L336.468 318.488C259.398 323.605 196.288 374.433 184.348 438.898H184.35ZM349.59 121.098C310.25 121.098 278.242 160.668 278.242 209.309C278.242 252.7 303.359 289.301 337.961 296.34L349.594 298.703L361.227 296.34C395.829 289.301 420.938 252.703 420.938 209.309C420.934 160.664 388.93 121.098 349.59 121.098V121.098Z" fill="white"/>
<path d="M443.7 461.3H75.5L76.5039 449.175C82.293 379.163 139.047 320.545 214.204 301.875C188.466 281.996 171.942 247.719 171.942 209.309C171.942 148.321 213.997 98.699 265.692 98.699C280.016 98.699 294.321 102.601 307.071 109.988L295.837 129.371C286.368 123.883 276.22 121.101 265.692 121.101C226.352 121.101 194.344 160.671 194.344 209.312C194.344 252.703 219.461 289.296 254.063 296.335L335.805 312.948L252.578 318.48C175.496 323.605 112.378 374.433 100.448 438.9H443.708L443.712 461.302L443.7 461.3Z" fill="white"/>
<path d="M624.5 461.3H256.3V438.902H599.56C587.622 374.429 524.513 323.602 447.44 318.482L364.252 312.955L445.955 296.334C480.557 289.295 505.674 252.697 505.674 209.311C505.674 160.67 473.666 121.1 434.326 121.1C421.994 121.1 409.83 125.076 399.146 132.604L386.248 114.288C400.725 104.089 417.35 98.6977 434.322 98.6977C486.017 98.6977 528.072 148.319 528.072 209.308C528.072 247.714 511.545 281.992 485.802 301.874C560.954 320.538 617.712 379.159 623.502 449.174L624.5 461.3Z" fill="white"/>
</svg>
