<svg width="700" height="700" viewBox="0 0 700 700" fill="none" xmlns="http://www.w3.org/2000/svg">
<path fill-rule="evenodd" clip-rule="evenodd" d="M113.64 140.82H247.18V43.632H113.64V140.82ZM252.53 151.644H108.17C105.209 151.644 102.815 149.249 102.815 146.288V38.1685C102.815 35.2076 105.209 32.813 108.17 32.813H252.42C255.381 32.813 257.776 35.2075 257.776 38.1685V146.178C257.889 149.257 255.494 151.647 252.533 151.647L252.53 151.644Z" fill="white"/>
<path fill-rule="evenodd" clip-rule="evenodd" d="M113.64 516.36H247.18V178.65H113.64V516.36ZM252.53 527.184H108.17C105.209 527.184 102.815 524.789 102.815 521.828V173.298C102.815 170.338 105.209 167.943 108.17 167.943H252.42C255.381 167.943 257.776 170.337 257.776 173.298V521.828C257.889 524.789 255.494 527.184 252.533 527.184H252.53Z" fill="white"/>
<path fill-rule="evenodd" clip-rule="evenodd" d="M284.89 209.98H586.37V43.63H284.89V209.98ZM591.84 220.691H279.54C276.579 220.691 274.185 218.296 274.185 215.335V38.1655C274.185 35.2046 276.579 32.81 279.54 32.81H591.84C594.801 32.81 597.195 35.2045 597.195 38.1655V215.335C597.195 218.3 594.801 220.691 591.84 220.691Z" fill="white"/>
<path fill-rule="evenodd" clip-rule="evenodd" d="M284.89 301.02H586.37V247.696L284.89 247.7V301.02ZM591.84 311.844H279.54C276.579 311.844 274.185 309.449 274.185 306.488V242.34C274.185 239.38 276.579 236.985 279.54 236.985H591.84C594.801 236.985 597.195 239.379 597.195 242.34V306.488C597.195 309.453 594.801 311.844 591.84 311.844Z" fill="white"/>
<path fill-rule="evenodd" clip-rule="evenodd" d="M284.89 516.36H416.71V338.84H284.89V516.36ZM422.18 527.184H279.53C276.569 527.184 274.174 524.789 274.174 521.828V333.379C274.174 330.418 276.569 328.023 279.53 328.023H422.18C425.141 328.023 427.535 330.418 427.535 333.379V521.828C427.535 524.789 425.141 527.184 422.18 527.184Z" fill="white"/>
<path fill-rule="evenodd" clip-rule="evenodd" d="M454.54 516.36H586.36V338.84H454.54V516.36ZM591.83 527.184H449.18C446.219 527.184 443.825 524.789 443.825 521.828V333.379C443.825 330.418 446.219 328.023 449.18 328.023H591.83C594.791 328.023 597.186 330.418 597.186 333.379V521.828C597.186 524.789 594.791 527.184 591.83 527.184Z" fill="white"/>
</svg>
