<svg width="700" height="700" viewBox="0 0 700 700" fill="none" xmlns="http://www.w3.org/2000/svg">
<path d="M478.24 442.96H469.842C456.401 442.96 445.201 432.882 445.201 419.44V383.042H409.361C395.92 383.042 384.72 372.401 384.72 358.964V327.605C384.72 314.164 396.482 302.406 409.361 302.406H445.201V267.687C445.201 254.246 456.4 242.488 469.842 242.488L501.201 242.48C514.642 242.48 525.279 253.679 525.279 267.679V271.039L570.638 238C576.798 233.519 573.997 223.441 566.157 223.441H412.717C409.358 223.441 405.998 221.202 404.877 217.839L357.275 72.239C355.037 64.9578 344.396 64.9578 342.154 72.239L294.552 217.839C293.431 221.198 290.63 223.441 286.712 223.441H133.832C125.993 223.441 122.633 233.519 129.352 238L253.112 328.16C255.913 330.398 257.034 333.761 255.913 337.12L208.311 482.72C206.072 490.002 214.471 496.161 220.631 491.681L344.391 401.521C347.192 399.283 351.11 399.283 353.91 401.521L478.79 491.677C484.95 496.158 493.911 489.998 491.11 482.158L478.24 442.96Z" fill="black"/>
<path d="M561.68 314.16H513.52V267.68C513.52 260.961 508.481 254.801 501.2 254.801H469.841C463.122 254.801 456.962 260.961 456.962 267.68V314.16H409.36C402.641 314.16 396.481 320.879 396.481 327.601V358.96C396.481 365.679 402.641 370.722 409.36 370.722H456.962V418.882C456.962 425.601 462.564 430.644 469.841 430.644L501.2 430.64C507.919 430.64 513.52 426.16 513.52 418.878V370.718H561.68C568.399 370.718 574 365.679 574 358.956V327.597C574 320.878 568.398 314.159 561.68 314.159V314.16Z" fill="black"/>
</svg>
