<svg width="700" height="700" viewBox="0 0 700 700" fill="none" xmlns="http://www.w3.org/2000/svg">
<path d="M341.95 173.3V275.87L421.993 355.89C426.052 359.949 427.634 365.863 426.149 371.402C424.665 376.945 420.337 381.273 414.794 382.761C409.251 384.245 403.337 382.659 399.282 378.601L314.532 293.855C311.517 290.843 309.817 286.757 309.817 282.496V173.296C309.735 168.983 311.388 164.819 314.411 161.741C317.431 158.659 321.563 156.924 325.876 156.924C330.189 156.924 334.321 158.659 337.345 161.741C340.365 164.819 342.021 168.983 341.939 173.296L341.95 173.3ZM613.42 173.3L599.232 226.241C596.677 235.741 591.072 244.136 583.271 250.132C575.474 256.128 565.919 259.39 556.08 259.417C552.15 259.413 548.232 258.898 544.435 257.878L491.607 243.73H491.603C483.021 241.441 475.314 236.648 469.462 229.96C463.61 223.276 459.88 214.999 458.747 206.187C456.673 191.617 462.06 176.976 473.083 167.222C449.845 140.882 419.044 122.359 384.884 114.183C350.724 106.007 314.872 108.578 282.224 121.543C249.579 134.504 221.732 157.231 202.49 186.617C183.244 216 173.541 250.609 174.705 285.715C175.869 320.82 187.842 354.711 208.99 382.754C230.138 410.801 259.428 431.632 292.861 442.405C326.291 453.178 362.232 453.37 395.781 442.948C429.324 432.526 458.832 412.007 480.273 384.186C490.086 371.733 505.761 365.413 521.468 367.569C537.171 369.73 550.562 380.046 556.652 394.686C562.738 409.323 560.621 426.088 551.082 438.752C517.941 481.764 472.168 513.322 420.182 529.006C368.198 544.694 312.612 543.713 261.202 526.206C209.804 508.702 165.171 475.55 133.562 431.397C101.957 387.245 84.9598 334.307 84.9598 280.007C84.9598 225.707 101.956 172.767 133.562 128.617C165.167 84.4647 209.8 51.3117 261.202 33.8077C312.604 16.2997 368.192 15.3237 420.182 31.0069C472.166 46.6909 517.94 78.2489 551.082 121.261C558.527 117.749 566.797 116.366 574.98 117.257C583.163 118.152 590.941 121.288 597.457 126.327C604.535 131.636 609.848 138.964 612.699 147.347C615.546 155.726 615.796 164.773 613.418 173.3L613.42 173.3ZM500.76 150.148L522.908 137.343C493.248 100.366 452.799 73.558 407.198 60.644C361.589 47.73 313.089 49.355 268.448 65.2924C223.807 81.2298 185.245 110.687 158.128 149.565C131.011 188.44 116.687 234.807 117.151 282.205C117.612 329.603 132.839 375.678 160.71 414.015C188.585 452.355 227.714 481.054 272.66 496.113C317.601 511.175 366.125 511.855 411.47 498.051C456.814 484.25 496.732 456.656 525.66 419.11C529.808 413.586 528.801 405.766 523.391 401.473C517.867 397.321 510.043 398.325 505.75 403.742C480.125 437.019 444.8 461.519 404.649 473.859C364.504 486.199 321.516 485.769 281.629 472.629C241.738 459.484 206.91 434.281 181.957 400.496C157.008 366.711 143.164 326.008 142.336 284.016C141.512 242.024 153.746 200.813 177.352 166.066C200.954 131.328 234.762 104.773 274.106 90.0739C313.45 75.3749 356.388 73.2539 396.987 84.0036C437.589 94.7576 473.849 117.852 500.756 150.098L500.76 150.148ZM577.92 151.816H577.924C573.908 148.609 568.33 148.199 563.893 150.789L496.78 189.547C492.307 191.976 489.842 196.953 490.62 201.985C491.213 207.141 494.921 211.395 499.94 212.696L552.768 226.844C556.002 227.711 559.448 227.258 562.346 225.582C565.245 223.91 567.362 221.152 568.225 217.918L582.413 164.977C583.843 160.082 582.046 154.817 577.925 151.817L577.92 151.816Z" fill="white"/>
</svg>
