<svg width="700" height="700" viewBox="0 0 700 700" fill="none" xmlns="http://www.w3.org/2000/svg">
<g clip-path="url(#clip0_5_2)">
<path d="M504.95 206.38C503.895 188.599 502.841 170.814 501.466 153.056C499.434 126.736 496.083 100.529 496.376 74.033C496.61 52.959 495.778 31.877 495.887 10.799C495.942 0.275986 492.903 -9.40001 489.731 -19.154C488.325 -23.4821 485.614 -26.736 481.708 -28.9431C457.466 -42.6311 432.536 -52.8101 403.649 -52.2521C356.094 -51.3224 308.516 -52.0724 260.949 -51.9943C252.851 -51.9787 244.754 -51.3732 236.656 -51.0256C219.379 -50.2756 202.109 -49.5022 184.832 -48.7756C178.894 -48.5216 172.871 -48.9396 167.031 -48.0802C146.605 -45.0685 126.047 -44.9474 105.535 -45.4786C85.2729 -46.006 65.8049 -42.045 46.2809 -37.5841C38.1793 -35.7364 31.1869 -31.7833 24.3469 -27.4551C18.4953 -23.752 15.2922 -18.502 15.55 -11.2251C15.8234 -3.69394 15.6125 3.84887 15.6125 10.7949C1.19049 20.1465 2.24149 17.4824 1.37049 34.3539C1.20252 37.5922 1.32752 40.8383 1.32752 44.0805C1.27674 108.408 1.54627 172.74 1.00721 237.06C0.827521 258.306 6.14781 277.447 16.9092 295.462C20.2178 301.013 22.878 306.946 25.8428 312.704C31.3311 323.372 38.1868 333.016 47.6478 340.509C54.39 345.845 60.0888 345.537 66.3238 339.447C69.7808 336.076 72.6246 332.076 75.7535 328.369C85.1441 317.24 94.5815 306.158 103.922 294.998C111 286.549 119.422 283.713 130.879 283.877C164.305 284.354 197.848 287.303 231.178 281.748C234.87 281.131 238.737 281.439 242.514 281.525C265.19 282.068 287.87 282.494 310.538 283.307C331.057 284.041 351.663 284.248 372.038 286.459C394.198 288.865 416.311 287.791 438.436 288.373C448.522 288.635 454.686 283.686 458.881 275.365C460.31 272.533 461.111 269.385 462.576 265.342C469.088 264.912 474.486 264.799 479.822 264.151C489.802 262.94 497.076 258.155 499.67 247.854C500.584 244.229 501.619 240.6 502.123 236.916C503.076 229.99 503.736 223.029 504.412 216.068C504.732 212.845 505.146 209.595 504.951 206.384L504.95 206.38ZM488.227 188.146C484.813 200.365 486.211 212.81 485.899 225.173C485.602 236.568 478.848 244.466 467.602 245.825C455.344 247.298 442.985 247.907 430.739 249.415C421.696 250.528 412.899 253.11 403.583 252.661C360.954 250.594 318.321 253.841 275.693 252.704C267.673 252.493 259.689 251.009 251.673 250.223C247.388 249.801 243.087 249.387 238.794 249.372C218.814 249.309 198.833 249.372 178.853 249.426C175.615 249.438 172.279 249.169 169.158 249.841C154.213 253.048 139.08 252.294 123.978 252.321C120.751 252.325 117.532 252.614 113.22 252.821C104.876 264.704 94.1926 275.395 87.4926 289.192C82.2192 300.067 77.4726 304.325 65.9106 310.731C60.2778 303.629 57.3598 294.919 53.0316 287.043C49.4066 280.453 46.5238 273.453 43.0196 266.793C38.4337 258.102 35.3868 249.141 34.6016 239.184C30.5625 188.051 26.5938 136.934 27.6954 85.554C28.3008 57.48 27.8126 29.386 27.8907 1.30004C27.9063 -4.03586 28.2618 -9.37195 28.4376 -14.259C36.8868 -21.091 45.8126 -24.321 55.4806 -26.279C72.4886 -29.7165 89.5626 -31.4313 106.95 -30.9704C124.204 -30.5172 141.524 -30.068 158.673 -33.0407C159.727 -33.2242 160.825 -33.2594 161.899 -33.2946C199.122 -34.5563 236.34 -36.3727 273.579 -36.9118C317.852 -37.5485 362.165 -36.3844 406.419 -37.4C430.271 -37.943 450.689 -29.65 470.79 -18.759C474.357 -16.8254 476.626 -14.0988 477.599 -10.2121C478.646 -6.02465 480.255 -1.89185 480.673 2.35386C482.415 20.0569 484.689 37.7679 485.126 55.5219C485.931 88.4519 485.474 121.405 485.821 154.35C485.911 162.951 487.032 171.538 487.685 180.131C487.896 182.807 488.907 185.709 488.224 188.143L488.227 188.146Z" fill="white"/>
</g>
<defs>
<clipPath id="clip0_5_2">
<rect width="700" height="700" fill="white"/>
</clipPath>
</defs>
</svg>
