<svg width="504" height="397" viewBox="0 0 504 397" fill="none" xmlns="http://www.w3.org/2000/svg">
<path d="M503.947 258.654C502.892 240.873 501.838 223.088 500.463 205.33C498.432 179.01 495.08 152.803 495.373 126.307C495.607 105.233 494.775 84.151 494.885 63.073C494.939 52.55 491.9 42.874 488.728 33.12C487.322 28.7919 484.611 25.538 480.705 23.3309C456.463 9.64288 431.533 -0.536122 402.646 0.0218779C355.091 0.951568 307.513 0.201563 259.946 0.279683C251.848 0.295308 243.751 0.900773 235.653 1.24843C218.376 1.99843 201.106 2.77183 183.829 3.49843C177.892 3.75234 171.868 3.33438 166.028 4.19375C145.602 7.20545 125.044 7.32655 104.532 6.79535C84.2701 6.26801 64.8021 10.2289 45.2781 14.6898C37.1765 16.5375 30.1841 20.4906 23.3441 24.8188C17.4925 28.5219 14.2894 33.7719 14.5472 41.0488C14.8206 48.58 14.6097 56.1229 14.6097 63.0689C0.187681 72.4205 1.23868 69.7563 0.367685 86.6278C0.199715 89.8661 0.324716 93.1123 0.324716 96.3545C0.273935 160.682 0.543463 225.014 0.00440325 289.334C-0.175287 310.58 5.145 329.721 15.9064 347.736C19.215 353.287 21.8752 359.22 24.84 364.978C30.3283 375.646 37.184 385.29 46.645 392.783C53.3872 398.119 59.086 397.811 65.321 391.721C68.778 388.35 71.6218 384.35 74.7507 380.643C84.1413 369.514 93.5787 358.432 102.919 347.272C109.997 338.823 118.419 335.987 129.876 336.151C163.302 336.628 196.845 339.577 230.176 334.022C233.867 333.405 237.734 333.713 241.512 333.799C264.188 334.342 286.867 334.768 309.535 335.581C330.055 336.315 350.66 336.522 371.035 338.733C393.195 341.139 415.308 340.065 437.433 340.647C447.519 340.909 453.683 335.96 457.878 327.639C459.307 324.807 460.108 321.658 461.573 317.616C468.085 317.186 473.483 317.073 478.819 316.425C488.8 315.214 496.073 310.428 498.667 300.128C499.581 296.503 500.616 292.874 501.12 289.19C502.073 282.264 502.733 275.303 503.409 268.342C503.73 265.119 504.144 261.869 503.948 258.658L503.947 258.654ZM487.224 240.42C483.81 252.639 485.209 265.084 484.896 277.447C484.599 288.842 477.845 296.74 466.599 298.099C454.341 299.572 441.982 300.181 429.736 301.689C420.693 302.802 411.896 305.384 402.58 304.935C359.951 302.868 317.318 306.115 274.69 304.978C266.671 304.767 258.686 303.283 250.67 302.497C246.385 302.075 242.084 301.661 237.791 301.646C217.811 301.583 197.83 301.646 177.85 301.7C174.612 301.712 171.276 301.443 168.155 302.115C153.21 305.322 138.077 304.568 122.975 304.595C119.748 304.599 116.529 304.888 112.217 305.095C103.873 316.978 93.1898 327.669 86.4898 341.466C81.2164 352.341 76.4698 356.599 64.9078 363.005C59.275 355.903 56.357 347.193 52.0288 339.317C48.4038 332.727 45.521 325.727 42.0168 319.067C37.4309 310.376 34.384 301.415 33.5988 291.458C29.5597 240.325 25.591 189.208 26.6926 137.828C27.298 109.754 26.8098 81.66 26.8879 53.574C26.9035 48.2381 27.259 42.902 27.4348 38.015C35.884 31.183 44.8098 27.953 54.4778 25.995C71.4858 22.5575 88.5597 20.8427 105.947 21.3036C123.201 21.7568 140.521 22.206 157.67 19.2333C158.724 19.0497 159.822 19.0146 160.896 18.9794C198.119 17.7177 235.337 15.9013 272.576 15.3622C316.849 14.7255 361.162 15.8896 405.416 14.8739C429.268 14.331 449.686 22.6239 469.787 33.5149C473.354 35.4485 475.623 38.1751 476.596 42.0618C477.643 46.2493 479.252 50.3821 479.67 54.6278C481.412 72.3308 483.686 90.0418 484.123 107.796C484.928 140.726 484.471 173.679 484.819 206.624C484.908 215.225 486.029 223.812 486.682 232.405C486.893 235.081 487.905 237.983 487.221 240.417L487.224 240.42Z" fill="white"/>
</svg>
