<svg width="700" height="700" viewBox="0 0 700 700" fill="none" xmlns="http://www.w3.org/2000/svg">
<path d="M472.99 151.62H146.19C129.042 151.62 115.088 165.573 115.088 182.722V392.182C115.088 409.33 129.041 423.284 146.19 423.284H179.393C182.381 423.284 185.131 424.893 186.604 427.483L209.471 467.592C213.553 474.756 220.905 479.143 229.162 479.307H229.674C237.724 479.307 245.049 475.272 249.322 468.409L275.197 427.155C276.736 424.729 279.372 423.257 282.244 423.257H473.014C490.162 423.257 504.116 409.304 504.116 392.155L504.119 182.715C504.096 165.567 490.142 151.613 472.99 151.613L472.99 151.62ZM489.185 392.19C489.185 401.128 481.927 408.381 472.994 408.381H282.244C274.193 408.381 266.846 412.44 262.572 419.256L236.697 460.51C234.459 464.127 230.935 464.432 229.486 464.408C228.064 464.385 224.541 463.897 222.439 460.209L199.572 420.1C195.443 412.866 187.72 408.362 179.388 408.362L146.189 408.358C137.252 408.358 129.998 401.1 129.998 392.167L129.994 182.727C129.994 173.79 137.252 166.536 146.185 166.536H472.995C481.933 166.536 489.186 173.794 489.186 182.727L489.185 392.19Z" fill="white"/>
<path d="M553.82 80.688H227.02C209.872 80.688 195.918 94.641 195.918 111.79V121.892C195.918 126.021 199.254 129.357 203.383 129.357C207.512 129.357 210.848 126.021 210.848 121.892V111.79C210.848 102.853 218.105 95.599 227.039 95.599H553.849C562.786 95.599 570.04 102.857 570.04 111.79V321.25C570.04 330.188 562.782 337.441 553.849 337.441H540.107C535.978 337.441 532.642 340.777 532.642 344.906C532.642 349.035 535.978 352.371 540.107 352.371H553.849C570.997 352.371 584.951 338.418 584.951 321.269V111.789C584.931 94.6406 570.974 80.6866 553.826 80.6866L553.82 80.688Z" fill="white"/>
<path d="M423.29 217.3H195.91C191.781 217.3 188.445 220.636 188.445 224.765C188.445 228.894 191.781 232.23 195.91 232.23H423.32C427.449 232.23 430.785 228.894 430.785 224.765C430.765 220.636 427.429 217.3 423.296 217.3H423.29Z" fill="white"/>
<path d="M423.29 280H195.91C191.781 280 188.445 283.336 188.445 287.465C188.445 291.594 191.781 294.93 195.91 294.93H423.32C427.449 294.93 430.785 291.594 430.785 287.465C430.765 283.336 427.429 280 423.296 280H423.29Z" fill="white"/>
<path d="M423.29 342.67H195.91C191.781 342.67 188.445 346.006 188.445 350.135C188.445 354.264 191.781 357.6 195.91 357.6H423.32C427.449 357.6 430.785 354.264 430.785 350.135C430.765 346.01 427.429 342.67 423.296 342.67H423.29Z" fill="white"/>
</svg>
