<svg width="700" height="700" viewBox="0 0 700 700" fill="none" xmlns="http://www.w3.org/2000/svg">
<path fill-rule="evenodd" clip-rule="evenodd" d="M334.19 135.48C334.577 131.285 336.616 127.418 339.854 124.726C343.092 122.035 347.268 120.738 351.459 121.125C378.588 123.714 403.74 136.445 421.885 156.781C440.026 177.113 449.826 203.547 449.323 230.793C449.225 234.941 447.515 238.886 444.55 241.789C441.585 244.687 437.604 246.312 433.456 246.316C433.335 246.324 433.217 246.324 433.1 246.316C428.889 246.226 424.889 244.468 421.975 241.425C419.061 238.386 417.479 234.312 417.569 230.101C417.928 210.878 411.018 192.23 398.217 177.886C385.42 163.538 367.678 154.554 348.537 152.726C344.35 152.343 340.482 150.308 337.791 147.074C335.1 143.84 333.803 139.668 334.189 135.48L334.19 135.48ZM183.6 403.18C182.553 404.336 182.127 405.926 182.452 407.454C182.78 408.977 183.819 410.254 185.245 410.883C237.175 433.715 293.285 445.504 350.005 445.504C406.725 445.504 462.835 433.715 514.765 410.883C516.19 410.254 517.229 408.977 517.558 407.454C517.882 405.926 517.456 404.34 516.413 403.18C496.515 380.289 482.042 353.2 474.073 323.934C466.1 294.668 464.839 263.985 470.378 234.164C471.792 200.488 459.999 167.594 437.515 142.488C415.031 117.379 383.628 102.047 350.003 99.7501C316.378 102.047 284.98 117.383 262.495 142.488C240.007 167.597 228.214 200.488 229.62 234.164C235.163 263.98 233.901 294.668 225.932 323.934C217.964 353.196 203.491 380.286 183.596 403.18H183.6ZM350.01 40.7801C354.213 40.784 358.002 43.3153 359.608 47.202C361.213 51.0848 360.323 55.5536 357.35 58.526C354.377 61.4948 349.909 62.3854 346.026 60.776C342.143 59.1666 339.612 55.3776 339.612 51.1744C339.62 45.4322 344.272 40.7834 350.01 40.7794L350.01 40.7801ZM350.01 519.2C337.596 519.185 325.619 514.61 316.35 506.352C307.084 498.09 301.17 486.719 299.729 474.387C333.143 478.211 366.877 478.211 400.289 474.387C398.848 486.719 392.934 498.094 383.668 506.352C374.399 514.614 362.422 519.184 350.008 519.2H350.01ZM151.41 414.09C153.808 425.61 161.652 435.246 172.445 439.934C202.957 453.375 234.902 463.297 267.66 469.504C267.91 498.758 283.66 525.68 309.035 540.234C334.414 554.789 365.605 554.789 390.98 540.234C416.355 525.679 432.105 498.757 432.355 469.504C465.117 463.301 497.066 453.379 527.578 439.934C538.328 435.196 546.152 425.582 548.613 414.094C551.07 402.606 547.871 390.637 540.004 381.91C523.227 362.484 511.078 339.504 504.465 314.703C497.852 289.902 496.949 263.926 501.824 238.726C501.953 238.074 502.031 237.414 502.055 236.75C503.926 200.414 493.422 164.516 472.262 134.92C451.098 105.322 420.528 83.7745 385.539 73.7945C390.988 65.2593 393.183 55.0485 391.722 45.0285C390.261 35.0085 385.242 25.8525 377.581 19.2275C369.925 12.6064 360.136 8.95752 350.011 8.95752C339.886 8.95752 330.097 12.6059 322.441 19.2275C314.781 25.8525 309.761 35.0085 308.3 45.0285C306.839 55.0485 309.034 65.2585 314.484 73.7945C279.496 83.7711 248.922 105.322 227.757 134.916C206.597 164.514 196.093 200.412 197.96 236.746C197.999 237.41 198.077 238.07 198.198 238.722C203.073 263.921 202.175 289.898 195.561 314.699C188.952 339.5 176.799 362.48 160.026 381.906C152.097 390.594 148.881 402.597 151.409 414.086L151.41 414.09Z" fill="black"/>
</svg>
