<svg width="700" height="700" viewBox="0 0 700 700" fill="none" xmlns="http://www.w3.org/2000/svg">
<g clip-path="url(#clip0_14_16)">
<path d="M547.34 243.39L489.692 301.038V-0.00195312H209.692V83.998H126.348V419.998C126.348 457.127 141.098 492.736 167.356 518.994C193.61 545.248 229.219 559.998 266.348 559.998H349.692C378.442 559.998 406.493 551.15 430.036 534.658C453.583 518.166 471.485 494.826 481.309 467.81L626.539 322.58L547.34 243.39ZM461.508 448.01L457.114 452.405L454.992 458.244V458.248C447.09 479.834 432.762 498.482 413.93 511.67C395.102 524.858 372.68 531.951 349.692 531.998H266.348C236.657 531.963 208.188 520.154 187.192 499.158C166.196 478.158 154.383 449.693 154.348 419.998V111.998H209.692V279.798H237.692V27.9983H293.692V280.458H321.692V27.9983H377.692V279.798H405.692V27.9983H461.692V368.628L547.34 282.98L586.938 322.578L461.508 448.01Z" fill="white"/>
</g>
<defs>
<clipPath id="clip0_14_16">
<rect width="700" height="700" fill="white"/>
</clipPath>
</defs>
</svg>
