<svg width="549" height="549" viewBox="0 0 549 549" fill="none" xmlns="http://www.w3.org/2000/svg">
<path fill-rule="evenodd" clip-rule="evenodd" d="M359.929 239.046C363.609 249.108 365.484 259.741 365.468 270.452C365.433 259.745 363.554 249.12 359.917 239.046H359.929ZM222.679 465.436C220.366 465.377 218.128 466.252 216.472 467.866C214.816 469.479 213.882 471.694 213.882 474.006C213.882 476.319 214.816 478.53 216.472 480.143C218.128 481.756 220.366 482.635 222.679 482.573H387.209C389.521 482.635 391.76 481.756 393.416 480.143C395.072 478.53 396.006 476.319 396.006 474.006C396.006 471.694 395.072 469.479 393.416 467.866C391.76 466.252 389.521 465.377 387.209 465.436H222.679ZM214.097 416.127C214.097 418.404 214.999 420.584 216.613 422.193C218.222 423.799 220.406 424.701 222.679 424.697H387.209C391.939 424.697 395.775 420.865 395.775 416.135C395.775 411.404 391.939 407.568 387.209 407.568H222.679C220.406 407.565 218.222 408.463 216.613 410.068C215.003 411.674 214.097 413.854 214.097 416.127V416.127ZM194.495 448.678H161.003C158.726 448.674 156.542 449.576 154.933 451.186C153.319 452.791 152.417 454.975 152.413 457.248V490.76C152.417 493.038 153.319 495.217 154.933 496.823C156.542 498.432 158.726 499.331 161.003 499.327H194.495C196.768 499.331 198.952 498.428 200.561 496.823C202.171 495.217 203.077 493.034 203.077 490.76V457.248C203.077 454.975 202.175 452.791 200.565 451.186C198.956 449.576 196.772 448.674 194.495 448.678ZM169.538 465.807H185.956V482.186H169.538V465.807ZM152.444 399.373V432.893C152.444 435.166 153.354 437.346 154.964 438.952C156.573 440.557 158.756 441.455 161.03 441.452H194.526C196.799 441.456 198.979 440.557 200.592 438.952C202.202 437.346 203.108 435.166 203.108 432.893V399.373C203.104 397.096 202.194 394.912 200.581 393.307C198.963 391.701 196.772 390.803 194.495 390.814H161.003C158.725 390.811 156.542 391.713 154.932 393.322C153.319 394.928 152.417 397.111 152.413 399.385L152.444 399.373ZM185.987 424.318L169.538 424.322V407.939H185.956V424.322L185.987 424.318ZM81.647 486.31V174.97C81.647 170.239 77.8111 166.404 73.0806 166.404C68.3501 166.404 64.5181 170.239 64.5181 174.97V486.31C64.5181 491.04 68.3501 494.876 73.0806 494.876C77.8111 494.876 81.647 491.04 81.647 486.31ZM531.077 130.21H17.137V503.6C17.1448 510.885 20.0432 517.87 25.1956 523.018C30.3479 528.17 37.3326 531.069 44.6176 531.077H503.598C510.883 531.069 517.868 528.17 523.02 523.018C528.172 517.87 531.07 510.885 531.078 503.6V130.18L531.077 130.21ZM503.597 0H44.617C32.789 0.007813 21.449 4.7109 13.082 13.074C4.7187 21.4373 0.012 32.777 0 44.605V503.605C0.015625 515.433 4.7188 526.773 13.086 535.132C21.4493 543.495 32.789 548.198 44.617 548.21H503.597C515.425 548.198 526.765 543.495 535.128 535.132C543.495 526.773 548.198 515.433 548.214 503.605V44.605C548.202 32.777 543.495 21.437 535.132 13.074C526.765 4.7107 515.425 0.008 503.597 0V0ZM304.117 286.96C307.598 287.648 310.109 290.687 310.129 294.233V313.917H238.098V294.233C238.117 290.686 240.629 287.648 244.109 286.96C252.539 293.96 263.152 297.792 274.113 297.792C285.074 297.792 295.687 293.96 304.117 286.96H304.117ZM274.113 213.706C278.926 213.702 283.543 215.612 286.949 219.015C290.355 222.413 292.265 227.03 292.269 231.843C292.269 236.655 290.359 241.272 286.957 244.675C283.554 248.081 278.937 249.991 274.125 249.991C269.312 249.991 264.695 248.081 261.293 244.675C257.89 241.272 255.98 236.655 255.98 231.843C255.984 227.034 257.898 222.425 261.297 219.027C264.695 215.624 269.305 213.71 274.113 213.706L274.113 213.706ZM220.972 294.233C220.98 287.725 223.57 281.487 228.175 276.885C232.777 272.287 239.015 269.698 245.523 269.694H247.293C249.523 269.701 251.66 270.58 253.25 272.143C258.824 277.6 266.312 280.655 274.113 280.655C281.914 280.655 289.402 277.6 294.976 272.143C296.581 270.573 298.737 269.69 300.987 269.694H302.757H302.753C309.253 269.709 315.483 272.303 320.073 276.901C324.667 281.502 327.249 287.733 327.253 294.233V322.487C327.249 327.201 323.432 331.03 318.717 331.045H229.561C224.827 331.053 220.979 327.221 220.972 322.487L220.972 294.233ZM274.113 267.116C264.758 267.12 255.781 263.409 249.164 256.796C242.543 250.183 238.824 241.21 238.82 231.855C238.82 222.499 242.531 213.523 249.148 206.906C255.761 200.289 264.734 196.57 274.089 196.57C283.444 196.57 292.417 200.285 299.034 206.898C305.651 213.515 309.37 222.488 309.37 231.843C309.362 241.195 305.643 250.159 299.034 256.773C292.425 263.386 283.464 267.105 274.112 267.117L274.113 267.116ZM67.053 70.936H55.381V59.272H67.053V70.936ZM135.248 70.936H123.576V59.272H135.248V70.936ZM203.393 70.936H191.721V59.272H203.373V70.936H203.393ZM220.518 79.5063V79.5102C220.518 84.229 216.702 88.0571 211.983 88.0727H183.186C178.451 88.0766 174.608 84.2446 174.596 79.5102V50.7012C174.6 48.4278 175.506 46.2442 177.115 44.6387C178.729 43.0332 180.912 42.1309 183.186 42.1348H211.983C216.702 42.1504 220.518 45.9825 220.518 50.7012V79.5102V79.5063ZM152.373 50.7013V79.5103C152.365 84.2447 148.521 88.0767 143.783 88.0728H114.99C110.256 88.0767 106.412 84.2447 106.404 79.5103V50.7013C106.408 48.4279 107.314 46.2482 108.924 44.6388C110.533 43.0333 112.713 42.131 114.99 42.1349H143.787H143.783C146.061 42.131 148.24 43.0333 149.854 44.6388C151.463 46.2443 152.369 48.4279 152.373 50.7013H152.373ZM84.178 50.7013V79.5103C84.1741 81.7837 83.2678 83.9634 81.6585 85.5689C80.0452 87.1783 77.8616 88.0767 75.5882 88.0728H46.7992C42.0804 88.0572 38.2601 84.229 38.2562 79.5103V50.7013C38.2562 45.9786 42.0765 42.1505 46.7992 42.1349H75.5882C77.8655 42.131 80.0491 43.0294 81.6585 44.6388C83.2679 46.2443 84.1741 48.424 84.178 50.7013V50.7013ZM382.668 270.471C382.676 241.678 371.242 214.065 350.887 193.698C330.535 173.335 302.922 161.889 274.129 161.886C245.336 161.882 217.719 173.316 197.359 193.671C176.996 214.03 165.554 241.64 165.55 270.433C165.55 299.226 176.984 326.843 197.343 347.203C217.702 367.562 245.316 379.004 274.109 379.004C302.886 378.973 330.476 367.531 350.828 347.188C371.18 326.84 382.633 299.25 382.668 270.473V270.471Z" fill="white"/>
</svg>
