<svg width="700" height="700" viewBox="0 0 700 700" fill="none" xmlns="http://www.w3.org/2000/svg">
<path d="M244.72 150.64C238.001 143.921 227.361 143.921 221.2 150.64C198.239 173.601 185.36 204.402 185.36 237.441C185.36 269.921 198.239 300.722 221.2 324.242C224.559 327.601 229.04 329.281 232.962 329.281C236.884 329.281 241.36 327.601 244.724 324.242C251.443 317.523 251.443 306.883 244.724 300.722C227.923 283.921 218.404 261.523 218.404 238.003C218.404 214.483 227.924 192.081 244.724 175.284C250.88 167.999 250.88 157.358 244.72 150.639L244.72 150.64Z" fill="black"/>
<path d="M562.8 469.28L442.96 348.88C454.159 334.88 463.679 319.759 470.401 303.521C478.799 282.24 483.28 260.4 483.28 237.443C483.28 214.482 478.8 192.642 470.401 171.365C461.44 149.525 448.561 129.924 431.76 113.127C414.959 96.3259 395.362 83.4469 373.522 74.4859C352.241 66.0875 330.401 61.6069 307.444 61.6069C284.483 61.6069 262.643 66.0874 241.366 74.4859C219.526 83.4468 199.925 96.3259 183.128 113.127C166.327 129.928 153.448 149.525 144.487 171.365C136.089 192.646 131.608 214.486 131.608 237.443C131.608 260.404 136.089 282.244 144.487 303.521C153.448 325.361 166.327 344.962 183.128 361.759C199.929 378.56 219.526 391.439 241.366 400.4C262.647 408.798 284.487 413.279 307.444 413.279C330.405 413.279 352.245 408.798 373.522 400.4C390.323 393.681 405.444 384.72 418.881 372.959L539.281 492.799C542.64 496.158 547.121 497.838 551.043 497.838C555.524 497.838 559.441 496.158 562.805 492.799C569.52 486.639 569.52 475.998 562.801 469.279L562.8 469.28ZM307.44 379.12C269.362 379.12 234.081 364.561 207.2 337.679C151.759 282.238 151.759 192.639 207.2 137.199C234.641 109.758 271.04 95.7579 307.44 95.7579C343.838 95.7579 380.241 109.758 407.68 137.199C463.121 192.64 463.121 282.239 407.68 337.679C380.801 364.558 345.52 379.12 307.44 379.12Z" fill="black"/>
</svg>
