<svg width="700" height="700" viewBox="0 0 700 700" fill="none" xmlns="http://www.w3.org/2000/svg">
<path d="M368.14 560H331.851C320.468 559.996 309.89 554.137 303.851 544.488C301.218 540.343 285.148 513.41 276.972 497.449L247.964 485.519C230.269 491.121 198.405 499.07 195.659 499.742C184.538 502.301 172.878 498.961 164.804 490.894L139.101 465.191C131.027 457.121 127.683 445.457 130.253 434.336C131.374 429.52 138.988 399.113 144.476 382.031L132.546 353.136C115.745 344.625 87.7453 327.656 85.5073 326.257C75.8589 320.218 69.9993 309.636 69.9953 298.257V261.855C69.9992 250.472 75.8586 239.894 85.5073 233.855C89.6518 231.222 116.585 215.152 132.546 206.976L144.476 178.081C138.875 160.386 130.925 128.522 130.253 125.776C127.695 114.651 131.035 102.995 139.101 94.9212L164.804 69.2182V69.2143C172.874 61.1401 184.538 57.7963 195.659 60.3666C200.475 61.4877 230.882 69.101 247.964 74.5896L276.859 62.6596C285.371 45.8586 302.339 17.8586 303.738 15.6206V15.6245C309.777 5.97615 320.359 0.112549 331.738 0.112549H368.027C379.41 0.112549 389.988 5.97585 396.027 15.6245C398.66 19.769 414.73 46.7026 422.906 62.6636L451.801 74.5935C469.496 68.9919 501.36 61.0426 504.106 60.3706L504.11 60.3666C515.231 57.808 526.887 61.1518 534.965 69.2143L560.668 94.9173V94.9212C568.742 102.992 572.086 114.651 569.516 125.776C568.395 130.593 560.781 160.999 555.293 178.081L567.223 206.976C584.024 215.488 612.024 232.456 614.262 233.855C623.91 239.894 629.77 250.472 629.774 261.855V298.144C629.77 309.527 623.91 320.105 614.262 326.144C610.117 328.777 583.184 344.847 567.223 353.023L555.516 382.031C561.117 399.726 569.067 431.59 569.739 434.336C572.297 445.457 568.957 457.117 560.891 465.191L535.188 490.894C527.114 498.961 515.454 502.3 504.333 499.742C499.517 498.621 469.11 491.008 452.028 485.519L423.133 497.449C414.621 514.25 397.653 542.25 396.254 544.488C390.191 554.172 379.563 560.035 368.141 560H368.14ZM248.8 452.26L299.593 473.369L302.112 478.971C307.265 490.17 325.854 521.643 330.112 528.084V528.08C330.507 528.72 331.21 529.103 331.96 529.091H368.249C368.999 529.103 369.698 528.72 370.097 528.08C373.402 522.814 392.495 490.896 398.097 478.967L400.616 473.365L451.577 452.252L457.179 454.322C468.773 458.58 504.109 467.65 511.554 469.443L511.55 469.451C512.257 469.658 513.023 469.439 513.511 468.889L539.214 443.186C539.753 442.69 539.968 441.932 539.776 441.225C538.378 435.233 529.304 399.112 524.656 386.85L522.585 381.248L543.585 330.4L549.187 327.881C560.386 322.728 591.859 304.139 598.3 299.881H598.296C598.933 299.486 599.315 298.783 599.304 298.033V261.744C599.315 260.994 598.933 260.295 598.296 259.896C593.03 256.592 561.112 237.498 549.183 231.896L543.581 229.377L522.468 178.416L524.539 172.814C528.796 161.22 537.867 125.884 539.66 118.439L539.664 118.443C539.824 117.736 539.613 116.998 539.105 116.482L513.402 90.7792H513.398C512.902 90.2401 512.148 90.0252 511.441 90.2167C505.449 91.6151 469.441 100.69 457.066 105.338L451.464 107.408L400.39 86.408L397.871 80.8064C392.719 69.6074 374.129 38.1344 369.871 31.6934V31.6973C369.476 31.0605 368.773 30.6778 368.023 30.6895H331.961C331.211 30.6777 330.508 31.0606 330.113 31.6973C326.809 36.9629 307.715 68.8813 302.113 80.8103L299.594 86.4119L248.633 107.525L243.031 105.455C231.437 101.197 196.101 92.1266 188.656 90.3336V90.3297C187.949 90.1226 187.188 90.3375 186.695 90.8883L160.992 116.591V116.595C160.453 117.091 160.239 117.845 160.434 118.552C161.832 124.544 170.907 160.665 175.555 172.927L177.625 178.529L156.625 229.603L151.024 232.122C139.825 237.275 108.352 255.864 101.911 260.122H101.915C101.274 260.517 100.891 261.22 100.903 261.97V298.259C100.891 299.009 101.274 299.708 101.915 300.107C107.18 303.411 139.099 322.505 151.028 328.107L156.629 330.626L177.742 381.587L175.672 387.189C171.414 398.783 162.344 434.119 160.551 441.564L160.543 441.56C160.387 442.267 160.598 443.005 161.105 443.521L186.809 469.224C187.305 469.763 188.062 469.978 188.769 469.786C194.762 468.388 230.769 459.313 243.144 454.665L248.8 452.26ZM349.99 410.819C315.295 410.819 282.021 397.038 257.49 372.503C232.955 347.972 219.174 314.698 219.174 280.003C219.174 245.308 232.955 212.034 257.49 187.503C282.021 162.968 315.295 149.187 349.99 149.187C384.685 149.187 417.959 162.968 442.49 187.503C467.025 212.034 480.806 245.308 480.806 280.003C480.747 314.679 466.947 347.917 442.423 372.437C417.903 396.96 384.665 410.761 349.989 410.82L349.99 410.819ZM349.99 180.159C323.51 180.159 298.111 190.679 279.388 209.405C260.661 228.128 250.142 253.526 250.142 280.007C250.142 306.488 260.662 331.886 279.388 350.609C298.111 369.336 323.509 379.855 349.99 379.855C376.471 379.855 401.869 369.335 420.592 350.609C439.319 331.886 449.838 306.488 449.838 280.007C449.807 253.534 439.279 228.155 420.561 209.437C401.843 190.719 376.463 180.191 349.991 180.16L349.99 180.159Z" fill="white"/>
</svg>
