<svg width="700" height="700" viewBox="0 0 700 700" fill="none" xmlns="http://www.w3.org/2000/svg">
<g clip-path="url(#clip0_23_10)">
<path d="M530 0C475.016 0 430.004 45.012 430.004 99.996C430.004 108.957 431.301 117.601 433.539 125.879L248.509 218.402C230.15 195.093 201.782 180.007 169.986 180.007C115.002 180.007 69.9902 225.019 69.9902 280.003C69.9902 334.987 115.002 379.999 169.986 379.999C201.748 379.999 230.134 364.913 248.49 341.62L433.54 434.143C431.318 442.42 430.005 451.049 430.005 460.006C430.005 514.99 475.017 560.002 530.001 560.002C584.985 560.002 629.997 514.99 629.997 460.006C629.997 405.022 584.985 360.01 530.001 360.01C498.204 360.01 469.837 375.096 451.478 398.405L266.448 305.882C268.686 297.605 269.983 288.96 269.983 279.999C269.983 271.038 268.686 262.413 266.448 254.136L451.498 161.613C469.857 184.906 498.225 199.992 530.002 199.992C584.986 199.992 629.998 154.98 629.998 99.996C629.998 45.012 584.986 0 530.002 0L530 0ZM530 40.004C563.371 40.004 590.008 66.641 590.008 100.012C590.008 133.383 563.371 160.02 530 160.02C496.629 160.02 469.992 133.383 469.992 100.012C469.992 66.641 496.629 40.004 530 40.004ZM169.99 219.994C203.361 219.994 229.998 246.631 229.998 280.002C229.998 313.373 203.361 340.01 169.99 340.01C136.619 340.01 109.982 313.373 109.982 280.002C109.982 246.631 136.619 219.994 169.99 219.994ZM530 399.994C563.371 399.994 590.008 426.631 590.008 460.002C590.008 493.373 563.371 520.01 530 520.01C496.629 520.01 469.992 493.373 469.992 460.002C469.992 426.631 496.629 399.994 530 399.994Z" fill="black"/>
</g>
<defs>
<clipPath id="clip0_23_10">
<rect width="700" height="700" fill="white"/>
</clipPath>
</defs>
</svg>
