<svg width="700" height="700" viewBox="0 0 700 700" fill="none" xmlns="http://www.w3.org/2000/svg">
<path d="M299.99 288.12L283.92 268.8L283.08 267.847H283.076C282.713 267.566 282.318 267.32 281.9 267.12H277.815C277.006 267.308 276.256 267.695 275.631 268.238C275.291 268.495 274.99 268.796 274.732 269.136C274.174 269.863 272.549 271.71 270.701 274.288C258.049 291.104 237.912 300.597 216.885 299.655C176.061 299.655 159.709 271.374 158.869 269.921C158.697 269.57 158.471 269.246 158.197 268.968L157.861 268.632H152.041L151.651 269.023L135.803 286.664H135.799C134.736 287.773 134.174 289.273 134.248 290.808C134.322 292.343 135.025 293.781 136.189 294.785C137.306 295.84 138.81 296.39 140.345 296.308C141.881 296.222 143.314 295.508 144.31 294.336L155.509 282.07C159.951 287.644 165.154 292.562 170.966 296.687L158.591 317.742C157.783 319.042 157.54 320.613 157.923 322.093C158.302 323.574 159.271 324.835 160.607 325.585C161.263 325.957 161.986 326.207 162.732 326.312C164.986 326.617 167.197 325.535 168.333 323.566L180.653 302.621V302.625C186.298 305.441 192.258 307.586 198.403 309.008L196.22 332.078C196.032 333.601 196.478 335.136 197.45 336.32C198.427 337.507 199.845 338.242 201.372 338.351H201.935C204.861 338.363 207.298 336.117 207.532 333.199L209.661 310.801C212.767 311.141 215.888 311.309 219.013 311.305C222.306 311.293 225.595 311.109 228.868 310.742L232.454 333.476V333.48C232.845 336.261 235.243 338.324 238.052 338.296H238.951C240.466 338.089 241.833 337.273 242.732 336.039C243.63 334.8 243.982 333.25 243.708 331.742L237.997 308C244.423 306.422 250.618 304.011 256.423 300.832L269.247 322.168H269.243C270.325 324.054 272.4 325.144 274.564 324.969C275.49 324.945 276.392 324.695 277.197 324.238C278.521 323.48 279.478 322.219 279.849 320.738C280.22 319.258 279.97 317.691 279.157 316.398L265.997 294.671C271.009 290.816 275.494 286.316 279.325 281.288L291.087 295.456C292.166 296.788 293.794 297.55 295.509 297.527C296.845 297.527 298.134 297.05 299.15 296.183C300.361 295.245 301.138 293.855 301.298 292.331C301.455 290.808 300.982 289.284 299.99 288.12L299.99 288.12Z" fill="black"/>
<path d="M566.27 285.94L550.422 268.299L550.031 267.908H544.492L544.156 268.244L544.148 268.24C543.875 268.522 543.648 268.842 543.477 269.194C542.637 270.651 526.286 298.928 485.461 298.928V298.931C464.434 299.869 444.301 290.377 431.645 273.56C429.797 270.986 428.172 269.135 427.613 268.408C427.356 268.072 427.055 267.768 426.715 267.514C426.09 266.967 425.34 266.584 424.531 266.393H420.5C420.086 266.596 419.692 266.838 419.324 267.123L416.074 268.803L400.004 288.178C399 289.33 398.508 290.842 398.645 292.365C398.782 293.889 399.536 295.291 400.731 296.24C401.746 297.111 403.039 297.588 404.371 297.588C406.086 297.607 407.715 296.846 408.797 295.514L420.559 281.346H420.555C424.43 286.361 428.946 290.846 433.996 294.674L420.836 316.401C420.024 317.694 419.774 319.26 420.145 320.741C420.516 322.221 421.473 323.483 422.797 324.241C423.575 324.729 424.457 325.018 425.371 325.08C427.539 325.26 429.614 324.17 430.692 322.283L443.516 300.947C449.344 304.092 455.555 306.463 461.996 308.002L458.41 330.904C458.136 332.412 458.492 333.963 459.39 335.201C460.289 336.435 461.656 337.252 463.172 337.459H464.066C466.879 337.486 469.273 335.424 469.668 332.642L473.195 310.072C476.468 310.44 479.757 310.623 483.05 310.635C486.175 310.639 489.297 310.471 492.402 310.131L494.531 332.529C494.765 335.447 497.207 337.689 500.133 337.681H500.691C502.222 337.572 503.64 336.838 504.613 335.65C505.586 334.467 506.031 332.931 505.844 331.408L503.66 308.338C509.808 306.916 515.765 304.772 521.41 301.955L533.73 322.9V322.896C534.871 324.865 537.082 325.947 539.332 325.642C540.082 325.537 540.804 325.287 541.46 324.912C542.792 324.166 543.761 322.904 544.144 321.424C544.523 319.943 544.281 318.373 543.476 317.072L531.101 296.017C536.91 291.892 542.113 286.974 546.554 281.4L557.753 293.666H557.757C558.749 294.838 560.183 295.553 561.718 295.639C563.253 295.721 564.757 295.17 565.874 294.115C567.058 293.111 567.772 291.662 567.847 290.111C567.921 288.561 567.351 287.049 566.269 285.939L566.27 285.94Z" fill="black"/>
</svg>
