<svg width="700" height="700" viewBox="0 0 700 700" fill="none" xmlns="http://www.w3.org/2000/svg">
<path d="M414.41 152.77C421.012 152.77 427.367 154.106 433.195 156.512C439.222 159.004 444.652 162.668 449.175 167.176C453.734 171.707 457.39 177.145 459.89 183.176C462.296 188.997 463.64 195.367 463.64 202C463.64 208.602 462.304 214.957 459.898 220.785C457.409 226.813 453.753 232.234 449.234 236.765C444.675 241.308 439.253 244.968 433.222 247.46C427.402 249.874 421.038 251.218 414.41 251.218C407.777 251.218 401.406 249.882 395.586 247.476L395.301 247.351C389.367 244.851 384.035 241.245 379.613 236.82C375.12 232.328 371.456 226.886 368.949 220.828C366.527 215 365.191 208.633 365.191 202.004C365.191 195.391 366.535 189.02 368.941 183.192C371.449 177.125 375.105 171.684 379.609 167.18L379.964 166.856C384.429 162.469 389.726 158.938 395.573 156.516C401.394 154.109 407.768 152.773 414.405 152.773L414.41 152.77ZM149.43 428.13C153.684 428.13 157.129 431.575 157.129 435.829C157.129 440.083 153.684 443.528 149.43 443.528C145.176 443.528 141.731 440.083 141.731 435.829C141.731 431.575 145.176 428.13 149.43 428.13ZM173.75 375.337V436.782C173.75 443.477 171.004 449.559 166.606 453.958C162.207 458.356 156.122 461.103 149.43 461.103C142.723 461.103 136.637 458.364 132.235 453.958C127.844 449.567 125.098 443.474 125.098 436.782V375.337H112.473V498.897H186.387V375.337H173.75ZM136.301 375.337V436.782C136.301 440.38 137.789 443.669 140.157 446.036C142.539 448.419 145.817 449.899 149.418 449.899C153.024 449.899 156.309 448.411 158.684 446.036C161.059 443.661 162.547 440.376 162.547 436.782V375.337H136.301ZM191.246 364.134L253.156 346.446C266.234 341.954 278.277 340.426 289.832 340.79C301.195 341.153 311.996 343.348 322.871 346.325L401.43 364.356C410.219 366.723 415.922 371.864 418.946 378.286L419.079 378.599C421.891 384.774 422.161 392.005 420.29 398.978L420.262 399.075C418.286 406.376 413.602 412.302 407.571 415.993C401.544 419.677 394.165 421.138 386.755 419.583L321.048 404.497C315.427 404.743 311.775 406.891 310.036 409.704C309.29 410.915 308.872 412.298 308.814 413.665C308.755 415.075 309.044 416.544 309.681 417.911C311.267 421.22 315.005 424.028 320.904 424.802L397.978 425.423L563.068 327.474C569.955 323.724 576.685 323.149 582.388 324.716C586.482 325.841 590.04 328.075 592.771 331.032C595.509 333.989 597.435 337.681 598.247 341.688C599.423 347.442 598.427 353.903 594.431 359.895L593.736 360.747L436.026 518.437C429.452 524.792 420.378 529.085 406.964 530.937C394.167 532.702 377.155 532.265 354.109 529.296L191.729 510.097H106.874C103.784 510.097 101.272 507.586 101.272 504.496V369.726C101.272 366.636 103.784 364.124 106.874 364.124H191.253L191.246 364.134ZM197.59 499.534L355.41 518.206C377.476 521.061 393.555 521.515 405.422 519.874C416.234 518.378 423.328 515.159 428.215 510.456L585.395 353.246C587.371 350.059 587.883 346.777 587.301 343.934C586.891 341.91 585.93 340.059 584.59 338.609C583.246 337.152 581.473 336.043 579.426 335.48C576.344 334.633 572.539 335.039 568.442 337.258L402.352 435.828C401.5 436.316 400.512 436.601 399.461 436.593L319.66 435.933C309.422 434.652 302.68 429.226 299.586 422.726C298.164 419.675 297.516 416.402 297.661 413.195C297.805 409.941 298.77 406.707 300.539 403.847C304.153 397.992 311.09 393.589 321.242 393.335C321.778 393.296 322.328 393.335 322.875 393.46L388.973 408.632C393.563 409.597 398.075 408.706 401.75 406.456C405.403 404.222 408.25 400.601 409.461 396.14C410.7 391.543 410.614 386.988 408.946 383.269L408.84 383.051C407.168 379.484 403.828 376.59 398.547 375.16L320.16 357.144C309.972 354.347 299.906 352.277 289.488 351.945C279.23 351.629 268.476 353.003 256.695 357.058L197.59 373.953L197.59 499.534ZM414.41 188.804C418.046 188.804 421.355 190.285 423.734 192.667C426.129 195.054 427.597 198.363 427.597 201.999C427.597 205.624 426.129 208.933 423.734 211.312C421.351 213.706 418.046 215.175 414.41 215.175C410.777 215.175 407.472 213.706 405.09 211.32C402.703 208.933 401.226 205.632 401.226 201.999C401.226 198.355 402.703 195.046 405.09 192.667C407.472 190.285 410.777 188.804 414.41 188.804ZM438.414 95.531L442.476 115.379C447.078 116.934 451.472 118.731 455.816 120.895L473.132 109.454C475.203 108.059 477.617 107.469 479.957 107.614L480.16 107.633C482.371 107.805 484.539 108.645 486.296 110.079C488.156 111.512 489.968 113.02 491.707 114.555L496.898 119.458C500.207 122.739 503.398 126.364 506.441 130.259C507.937 132.157 508.691 134.411 508.781 136.669C508.867 138.966 508.253 141.286 506.949 143.251L495.492 160.599L498.507 167.142L501 173.927L521.379 178.087C523.718 178.572 525.769 179.779 527.304 181.419C528.906 183.126 529.949 185.314 530.226 187.657C531.074 197.572 531.66 206.622 530.199 216.622C529.843 219.056 528.703 221.224 527.082 222.845L526.625 223.255C525.043 224.677 523.039 225.65 520.871 225.986L501.023 230.048L498.534 236.767C497.894 238.369 497.144 240.009 496.366 241.63L495.488 243.384L507.207 261.157C508.398 263.142 508.898 265.353 508.781 267.509C508.636 269.903 507.734 272.224 506.16 274.075L506.082 274.169C504.699 275.927 503.269 277.642 501.816 279.275C500.078 281.247 498.429 283.005 496.929 284.505L496.593 284.818C495.039 286.364 493.39 287.907 491.691 289.407C489.914 290.982 488.046 292.536 486.14 294.025C484.214 295.513 481.972 296.278 479.726 296.372C477.425 296.458 475.101 295.845 473.14 294.54L455.796 283.083C451.351 285.286 447.171 286.986 442.468 288.614L438.3 308.993C437.816 311.353 436.601 313.404 434.968 314.919C433.253 316.505 431.097 317.533 428.765 317.822C423.871 318.325 419.32 318.689 414.398 318.689C412.367 318.716 409.968 318.63 407.261 318.47L400.07 317.829C397.531 317.532 395.289 316.38 393.589 314.708C391.91 313.056 390.773 310.872 390.394 308.458L386.339 288.614L379.601 286.114L373.007 283.083L355.683 294.532C353.625 295.923 351.219 296.509 348.898 296.376C346.492 296.231 344.156 295.317 342.316 293.751L336.972 289.294C335.3 287.825 333.593 286.22 331.898 284.513C330.265 282.892 328.625 281.145 327.011 279.321C325.445 277.548 323.89 275.669 322.367 273.731C320.871 271.833 320.117 269.563 320.027 267.317C319.941 265.02 320.562 262.688 321.859 260.731L333.308 243.395L330.3 236.852C329.425 234.571 328.582 232.376 327.808 230.067L307.124 225.821C304.901 225.313 302.972 224.13 301.507 222.567C299.905 220.86 298.866 218.684 298.577 216.356C298.109 211.47 297.702 206.938 297.702 202.004C297.675 199.973 297.761 197.579 297.921 194.86L298.569 187.668C298.866 185.122 300.03 182.872 301.698 181.18C303.366 179.5 305.542 178.364 307.929 177.993L327.784 173.938C329.311 169.36 331.135 164.915 333.315 160.61L321.854 143.262C320.479 141.18 319.897 138.789 320.022 136.489C320.167 134.082 321.073 131.766 322.643 129.907L322.717 129.821C324.12 128.035 325.569 126.301 327.022 124.66C328.51 122.946 330.151 121.207 331.862 119.489L332.253 119.133C333.819 117.571 335.487 116.016 337.206 114.504L342.651 109.965C344.549 108.485 346.811 107.711 349.073 107.625C351.374 107.532 353.702 108.153 355.639 109.426L373.022 120.922L379.549 117.887C381.823 117.02 384.026 116.168 386.331 115.399L390.503 95.0076C390.987 92.6404 392.194 90.5818 393.854 89.0545L394.1 88.8435C395.76 87.3943 397.831 86.449 400.042 86.1716C407.893 85.5701 413.569 85.1794 421.546 85.5232C423.991 85.7146 426.62 85.8591 429.038 86.2029C431.46 86.5583 433.589 87.6834 435.237 89.3201C436.889 90.9607 438.03 93.1443 438.405 95.5389L438.414 95.531ZM432.203 120.871L427.383 97.266C419.261 96.4183 409.606 95.9769 401.449 97.2738L396.621 120.879C396.21 122.844 394.761 124.523 392.706 125.117C389.558 126.109 386.937 127.035 383.851 128.199L379.605 130.109L375.464 132.277C373.691 133.258 371.449 133.25 369.652 132.059L349.539 118.786L344.597 122.879L339.843 127.317C338.41 128.758 336.933 130.332 335.425 132.047C334.07 133.547 332.765 135.118 331.515 136.704L331.199 137.114L344.472 157.208C345.577 158.895 345.734 161.118 344.691 163.001C342.304 167.552 340.734 171.13 338.909 175.931L337.593 180.071C337.089 182.095 335.468 183.763 333.292 184.204L309.679 189.013L309.089 195.513L308.898 201.993C308.925 206.274 309.097 210.716 309.699 214.95L333.265 219.771C335.276 220.169 336.995 221.642 337.577 223.747C338.558 226.923 339.448 229.442 340.628 232.556L342.546 236.802L344.702 240.942C345.683 242.716 345.675 244.958 344.483 246.755L331.194 266.876L335.39 271.915C336.804 273.509 338.288 275.083 339.8 276.591C341.21 278.013 342.765 279.462 344.402 280.923L349.546 285.204L369.632 271.923C371.32 270.818 373.542 270.661 375.425 271.704L379.605 273.872L383.859 275.782L388.288 277.47L392.679 278.861C394.616 279.423 396.191 281.009 396.62 283.118L401.437 306.723L408.019 307.305L414.409 307.497C418.862 307.466 422.937 307.192 427.378 306.704L432.195 283.145C432.593 281.133 434.066 279.414 436.171 278.832L440.597 277.438C445.398 275.637 448.824 274.078 453.37 271.696C455.144 270.715 457.386 270.723 459.183 271.914L479.304 285.207L484.311 281.035C487.663 277.887 490.304 275.215 493.472 271.867L497.632 266.856L484.362 246.774C483.256 245.086 483.1 242.864 484.143 240.981C485.67 238.032 486.827 235.602 488.186 232.567L489.905 228.102L491.28 223.731C491.835 221.785 493.424 220.2 495.538 219.77L519.132 214.953C520.018 206.844 520.413 197.153 519.132 189.013L495.566 184.204C493.554 183.805 491.835 182.333 491.253 180.227L489.863 175.735L488.202 171.415L486.284 167.177L484.234 163.196C483.148 161.403 483.116 159.067 484.347 157.212L497.628 137.099C495.034 133.778 492.14 130.513 489.003 127.376L484.311 122.95C482.726 121.556 481.089 120.184 479.436 118.903L479.284 118.763L459.374 131.911C457.667 133.141 455.331 133.352 453.374 132.254L449.226 130.09C446.144 128.688 443.675 127.696 440.507 126.493L436.155 125.118C434.21 124.563 432.624 122.973 432.194 120.86L432.203 120.871ZM428.949 166.832C424.512 165 419.582 163.977 414.41 163.977C409.23 163.977 404.305 164.996 399.867 166.832C395.351 168.703 391.261 171.422 387.836 174.781L387.539 175.098C384.008 178.629 381.168 182.828 379.266 187.434C377.426 191.887 376.402 196.813 376.402 202C376.402 207.179 377.426 212.094 379.266 216.539C381.172 221.168 384.016 225.367 387.539 228.894C391.004 232.358 395.113 235.155 399.617 237.054L399.875 237.151C404.312 238.991 409.234 240.007 414.414 240.007C419.578 240.007 424.496 238.984 428.937 237.144C433.585 235.233 437.789 232.394 441.324 228.874C444.816 225.362 447.652 221.155 449.578 216.511C451.41 212.081 452.433 207.163 452.433 201.991C452.433 196.819 451.41 191.897 449.57 187.452C447.652 182.827 444.816 178.628 441.277 175.089C437.773 171.577 433.578 168.738 428.949 166.82L428.949 166.832Z" fill="white"/>
</svg>
