<svg width="700" height="700" viewBox="0 0 700 700" fill="none" xmlns="http://www.w3.org/2000/svg">
<path d="M165.2 33.602C161.665 33.602 159.641 36.5864 159.598 39.2036V520.804C159.598 523.737 162.266 526.401 165.2 526.405H456.4C457.904 526.405 459.392 525.745 460.423 524.655L538.821 446.257C539.81 445.238 540.384 443.828 540.396 442.406V39.2056C540.396 36.272 537.728 33.6079 534.794 33.604L165.2 33.602ZM170.802 44.801H529.202V436.801H456.401C452.807 436.856 450.838 439.707 450.799 442.403V515.204H170.799L170.802 44.801ZM238.001 112C225.696 112 215.603 122.094 215.603 134.398C215.603 146.703 225.697 156.796 238.001 156.796C250.305 156.796 260.399 146.702 260.399 134.398C260.399 122.093 250.305 112 238.001 112V112ZM238.001 123.199C244.251 123.199 249.2 128.148 249.2 134.398C249.2 140.652 244.25 145.597 238.001 145.597C231.751 145.597 226.802 140.648 226.802 134.398C226.802 128.144 231.751 123.199 238.001 123.199ZM316.399 128.801C313.305 128.801 310.797 131.308 310.797 134.402C310.797 137.496 313.305 140.004 316.399 140.004H478.799C481.892 140.004 484.4 137.496 484.4 134.402C484.4 131.308 481.892 128.801 478.799 128.801H316.399ZM238.001 201.602C225.696 201.602 215.603 211.696 215.603 224C215.603 236.304 225.697 246.398 238.001 246.398C250.305 246.398 260.399 236.304 260.399 224C260.399 211.696 250.305 201.602 238.001 201.602ZM238.001 212.801C244.251 212.801 249.2 217.75 249.2 224C249.2 230.253 244.25 235.199 238.001 235.199C231.751 235.199 226.802 230.249 226.802 224C226.802 217.746 231.751 212.801 238.001 212.801ZM316.399 218.402C313.305 218.402 310.797 220.91 310.797 224.004C310.797 227.098 313.305 229.605 316.399 229.605H478.799C481.892 229.605 484.4 227.098 484.4 224.004C484.4 220.91 481.892 218.402 478.799 218.402H316.399ZM238.001 291.203C225.696 291.203 215.603 301.297 215.603 313.601C215.603 325.906 225.697 335.999 238.001 335.999C250.305 335.999 260.399 325.905 260.399 313.601C260.399 301.296 250.305 291.203 238.001 291.203ZM238.001 302.402C244.251 302.402 249.2 307.351 249.2 313.601C249.2 319.855 244.25 324.8 238.001 324.8C231.751 324.8 226.802 319.851 226.802 313.601C226.802 307.347 231.751 302.402 238.001 302.402ZM316.399 308.004C313.305 308.004 310.797 310.512 310.797 313.605C310.797 316.699 313.305 319.207 316.399 319.207H478.799C481.892 319.207 484.4 316.699 484.4 313.605C484.4 310.512 481.892 308.004 478.799 308.004H316.399ZM238.001 380.805C225.696 380.805 215.603 390.899 215.603 403.203C215.603 415.507 225.697 425.601 238.001 425.601C250.305 425.601 260.399 415.507 260.399 403.203C260.399 390.899 250.305 380.805 238.001 380.805ZM238.001 392.004C244.251 392.004 249.2 396.953 249.2 403.203C249.2 409.457 244.25 414.402 238.001 414.402C231.751 414.402 226.802 409.453 226.802 403.203C226.802 396.949 231.751 392.004 238.001 392.004ZM316.399 397.605C313.305 397.605 310.797 400.113 310.797 403.207C310.797 406.301 313.305 408.809 316.399 408.809H478.799C481.892 408.809 484.4 406.301 484.4 403.207C484.4 400.113 481.892 397.605 478.799 397.605H316.399ZM461.999 448.003H521.147L461.999 507.148V448.003Z" fill="white"/>
</svg>
